<?xml version="1.0" encoding="iso-8859-1"?>
<!-- Generator: Adobe Illustrator 19.0.0, SVG Export Plug-In . SVG Version: 6.00 Build 0)  -->
<svg version="1.1" id="Layer_1" xmlns="http://www.w3.org/2000/svg" xmlns:xlink="http://www.w3.org/1999/xlink" x="0px" y="0px"
	 viewBox="0 0 405.335 405.335" style="enable-background:new 0 0 405.335 405.335;" xml:space="preserve">
<g>
	<g>
		<circle cx="42.88" cy="362.669" r="42.667"/>
	</g>
</g>
<g>
	<g>
		<path d="M85.585,219.56c-13.858-4.132-28.244-6.229-42.705-6.225c-14.447-0.012-28.819,2.071-42.667,6.187v45.44
			c54.016-23.51,116.863,1.219,140.373,55.235c11.817,27.149,11.817,57.989,0,85.139h45.44
			C209.591,326.299,164.621,243.125,85.585,219.56z"/>
	</g>
</g>
<g>
	<g>
		<path d="M88.13,110.527c-14.938-2.632-30.082-3.923-45.25-3.859c-14.305,0.086-28.577,1.37-42.667,3.84v42.667
			c115.424-23.645,228.161,50.757,251.806,166.18c5.811,28.368,5.786,57.622-0.073,85.98h42.667
			C319.003,266.908,226.558,134.917,88.13,110.527z"/>
	</g>
</g>
<g>
	<g>
		<path d="M88.5,2.738C73.366,0.863,58.129-0.05,42.88,0.002C28.616,0.087,14.369,1.013,0.213,2.775v42.667
			c14.144-1.875,28.398-2.801,42.667-2.773c176.731,0,320,143.269,320,320c-0.114,14.278-1.183,28.532-3.2,42.667h42.667
			C426.854,207.495,286.341,27.246,88.5,2.738z"/>
	</g>
</g>
<g>
</g>
<g>
</g>
<g>
</g>
<g>
</g>
<g>
</g>
<g>
</g>
<g>
</g>
<g>
</g>
<g>
</g>
<g>
</g>
<g>
</g>
<g>
</g>
<g>
</g>
<g>
</g>
<g>
</g>
</svg>
