<svg id="Layer_1_1_" enable-background="new 0 0 64 64" height="512" viewBox="0 0 64 64" width="512" xmlns="http://www.w3.org/2000/svg"><path d="m3 62h8c.55225 0 1-.44775 1-1v-3h7c.55225 0 1-.44775 1-1v-12h7v3c0 .55225.44775 1 1 1h8c.55225 0 1-.44775 1-1v-3h5c.55225 0 1-.44775 1-1v-11h7.09845c.1994 1.18787.7442 2.328 1.65887 3.24268 1.16944 1.16992 2.70606 1.75488 4.24268 1.75488s3.07324-.58496 4.24268-1.75488c2.33936-2.33936 2.33936-6.146 0-8.48535l-1.41406 1.41406c1.55957 1.55957 1.55957 4.09766 0 5.65723-1.51074 1.51074-4.14648 1.51074-5.65723 0-1.55957-1.55957-1.55957-4.09766 0-5.65723l-1.41406-1.41406c-.91468.91467-1.45948 2.0548-1.65888 3.24267h-7.09845v-12c0-.55225-.44775-1-1-1h-5v-3c0-.55225-.44775-1-1-1h-8c-.55225 0-1 .44775-1 1v3h-7v-11c0-.55225-.44775-1-1-1h-7v-3c0-.55225-.44775-1-1-1h-8c-.55225 0-1 .44775-1 1v8c0 .55225.44775 1 1 1h8c.55225 0 1-.44775 1-1v-3h6v23h-6v-3c0-.55225-.44775-1-1-1h-8c-.55225 0-1 .44775-1 1v8c0 .55225.44775 1 1 1h8c.55225 0 1-.44775 1-1v-3h6v23h-6v-3c0-.55225-.44775-1-1-1h-8c-.55225 0-1 .44775-1 1v8c0 .55225.44775 1 1 1zm7-52h-6v-6h6zm0 25h-6v-6h6zm25 12h-6v-6h6zm-6-31h6v6h-6zm-2 4v3c0 .55225.44775 1 1 1h8c.55225 0 1-.44775 1-1v-3h4v23h-4v-3c0-.55225-.44775-1-1-1h-8c-.55225 0-1 .44775-1 1v3h-7v-23zm-23 34h6v6h-6z"/><path d="m46.55273 18.89453 8 4c.13868.06934.292.10547.44727.10547v9h2v-18c0-.55225-.44775-1-1-1h-1c-.15527 0-.30859.03613-.44727.10547l-8 4c-.33886.16943-.55273.51562-.55273.89453s.21387.7251.55273.89453zm8.44727-3.77637v5.76367l-5.76416-2.88183z"/></svg>