<svg id="Layer_1" enable-background="new 0 0 512.006 512.006" height="512" viewBox="0 0 512.006 512.006" width="512" xmlns="http://www.w3.org/2000/svg"><g><path d="m383.678 57.518c-99.222-63.997-232.849-44.956-309.783 48.379-72.682 88.176-70.625 213.367-1.241 298.761.482-.327 12.233-10.176 15.024-12.245-36.351-79.567-26.866-176.312 32.516-248.352 64.006-77.651 167.252-103.875 257.282-73.65 2.011-4.325 4.08-8.622 6.202-12.893z" fill="#fff"/><path d="m71.377 423.007c-5.879 0-11.702-2.58-15.651-7.534-17.683-22.181-31.456-46.921-40.938-73.534-9.811-27.538-14.785-56.45-14.785-85.933 0-68.38 26.628-132.667 74.98-181.02s112.639-74.98 181.02-74.98c58.26 0 115.278 20.098 160.552 56.592 8.6 6.932 9.951 19.523 3.02 28.123-6.933 8.6-19.524 9.951-28.123 3.019-38.741-31.228-85.578-47.734-135.448-47.734-119.103 0-216 96.897-216 216 0 49.442 16.252 95.963 47 134.533 6.885 8.637 5.466 21.221-3.171 28.106-3.684 2.936-8.085 4.361-12.456 4.362zm365.645 14.018c48.352-48.352 74.98-112.639 74.98-181.02 0-11.602-.785-23.272-2.333-34.688-1.485-10.945-11.562-18.62-22.506-17.131-10.945 1.484-18.615 11.561-17.131 22.506 1.308 9.64 1.97 19.502 1.97 29.313 0 119.103-96.897 216-216 216-12.609 0-25.242-1.093-37.549-3.249-10.877-1.907-21.245 5.369-23.151 16.25-1.906 10.88 5.369 21.245 16.25 23.151 14.58 2.554 29.535 3.849 44.451 3.849 68.38 0 132.667-26.629 181.019-74.981z" fill="#fff"/><path d="m262.003 386.006c0 13.807-11.193 25-25 25s-25-11.193-25-25 11.193-25 25-25 25 11.193 25 25zm37-83c-13.807 0-25 11.193-25 25s11.193 25 25 25 25-11.193 25-25-11.193-25-25-25zm139-65c0-33.084-26.916-60-60-60s-60 26.916-60 60 26.916 60 60 60 60-26.916 60-60zm-40 0c0 11.028-8.972 20-20 20s-20-8.972-20-20 8.972-20 20-20 20 8.972 20 20zm-309.523 265.845c26.903-9.65 60.451-28.326 97.018-54.01 9.039-6.349 11.22-18.823 4.871-27.861-6.349-9.04-18.822-11.22-27.861-4.871-33.682 23.657-63.95 40.632-87.533 49.092-23.176 8.314-32.355 5.569-33.545 4.38-1.217-1.217-2.133-5.696-.709-14.315 1.8-10.898-5.575-21.192-16.473-22.992-10.902-1.807-21.192 5.575-22.992 16.473-3.502 21.2.498 37.726 11.89 49.118 8.749 8.749 20.537 13.126 35.247 13.126 11.573-.001 24.958-2.713 40.087-8.14zm383.164-351.351c42.149-68.377 51.306-115.262 27.216-139.353-10.856-10.855-26.492-15.019-46.478-12.377-10.95 1.448-18.654 11.498-17.207 22.449s11.495 18.648 22.449 17.207c8.654-1.145 12.285.338 12.952 1.007 2.768 2.767 5.596 27.494-32.983 90.079-5.796 9.403-2.872 21.724 6.531 27.52 3.271 2.017 6.896 2.978 10.476 2.978 6.71-.001 13.264-3.378 17.044-9.51z" fill="#fff"/></g></svg>