<svg height="512" viewBox="0 0 61 61" width="512" xmlns="http://www.w3.org/2000/svg"><g id="Page-1" fill="none" fill-rule="evenodd"><g id="026---Searching-Web" fill="rgb(0,0,0)" fill-rule="nonzero"><path id="Shape" d="m24.891 15.909c.279.043.563.062.847.08.3560685.0023666.7099743.0555703 1.051.158.2189193.0984124.427879.2176266.624.356.2232219.1514674.4549346.2900276.694.415.395452.2029255.8325565.3114315 1.277.317.4913665.0086299.9698184-.1575879 1.35-.469.6205461-.5706635.8876914-1.4301081.7-2.252-.0805481-.3726322-.1995176-.7359081-.355-1.084-.053-.128-.106-.256-.152-.388-.2337842-.6639371-.2757205-1.3803202-.121-2.067.233-1.022.467-2.856-.58-3.65-.6822539-.46225026-1.5815051-.44543434-2.246.042-1.1538546.72453589-2.1921406 1.61854062-3.08 2.652-.377.394-.745.778-1.1 1.112-.8608169.6366514-1.3506113 1.6581799-1.308 2.728.2685481 1.1324605 1.2385169 1.9613209 2.399 2.05zm.261-3.313c.386-.359.782-.771 1.188-1.2.7544836-.8782764 1.6298934-1.64493344 2.6-2.277.02-.012.04-.021.057-.031.0243396.48388436-.0224931.9687207-.139 1.439-.236195 1.0569708-.1714115 2.1589841.187 3.181.058.161.122.32.187.479.1017885.2217316.18183.4528136.239.69.0237494.114146.0206685.2322476-.009.345-.159862.0186099-.3213675-.0165765-.459-.1-.1704513-.0901485-.3354074-.1903242-.494-.3-.3129477-.2173518-.6481753-.4007213-1-.547-.5310868-.1823031-1.0875702-.2798311-1.649-.289-.223-.014-.447-.027-.666-.061-.429-.066-.72-.271-.739-.389-.013-.091.057-.344.697-.936z"/><path id="Shape" d="m35 23c-6.627417 0-12 5.372583-12 12s5.372583 12 12 12 12-5.372583 12-12c-.0071648-6.624447-5.375553-11.9928352-12-12zm-2.331 2.285c.2175873 1.0032399.6248926 1.9556554 1.2 2.806.6324986.7967544 1.0248218 1.7572697 1.131 2.769-.063 1.269-1.472 2.273-2.831 2.609-.8998624.1914248-1.8153363.3002105-2.735.325-.8607118.0343718-1.7184071.1228801-2.568.265-.6393365.1252767-1.2607213.3291581-1.85.607.1556433-4.490509 3.2852291-8.3267358 7.653-9.381zm2.331 19.715c-4.794926-.0075754-8.9114616-3.4133513-9.817-8.122.6203281-.4240645 1.3217014-.7151685 2.06-.855.764787-.1251058 1.5366063-.2025883 2.311-.232 1.0427898-.0314681 2.0804837-.1586693 3.1-.38 2.079-.515 4.231-2.09 4.349-4.453-.0639072-1.4510673-.5799919-2.8458247-1.476-3.989-.4017502-.5948911-.6971388-1.255032-.873-1.951.117 0 .232-.018.35-.018 5.5228474.0000001 9.9999998 4.4771526 9.9999998 10s-4.4771524 9.9999999-9.9999998 10z"/><path id="Shape" d="m52.465 46.808c-.5051795-.5004707-1.2386551-.6940321-1.925-.508l-2.311-2.311c4.1219209-6.038553 3.6031783-14.1079287-1.258-19.569.013-.305.029-.61.029-.92-.0055184-12.9764052-10.5235948-23.49448165-23.5-23.5-.488 0-.972.02-1.453.049h-.037c-7.7985339.50269843-14.83800153 4.84629539-18.785 11.591l-.007.007-.006.015c-4.24876772 7.2649833-4.28479874 16.2481911-.09444547 23.5470231 4.19035328 7.2988321 11.96627227 11.797099 20.38244547 11.7909769.309 0 .615-.016.921-.029 5.4599022 4.8593125 13.5267105 5.3780226 19.564 1.258l2.315 2.312c-.1853506.6862597.009434 1.419275.511 1.923l6.364 6.364c1.0042979 1.0398263 2.4915116 1.4568504 3.8900293 1.0907886 1.3985177-.3660617 2.4906976-1.4582416 2.8567593-2.8567593.3660618-1.3985177-.0509623-2.8857314-1.0907886-3.8900293zm-7.5-24.3c-2.3518521-1.8859451-5.1910365-3.0650372-8.187-3.4 1.4262346-2.1861603 1.8763481-4.8679959 1.242-7.4-.2371702-.8020141-.5322799-1.5857426-.883-2.345-.3399913-.72107321-.6179946-1.46977519-.831-2.238-.0786427-.32058867-.12124-.64895669-.127-.979 5.2744519 3.8249979 8.5118902 9.8505371 8.79 16.36zm-24.314-20.297c-.6037986 1.64662062-1.3187784 3.2503138-2.14 4.8-.2522037.62809423-.7027318 1.15657809-1.283 1.505-.5018509.12260272-1.0249732.12978283-1.53.021-.8579986-.1762847-1.7479033-.11402942-2.573.18-1.0239234.48291817-1.7440456 1.439465-1.925 2.557-.151598.9623143-.0403435 1.9477113.322 2.852.6124657 1.6597888 1.7073912 3.0984457 3.144 4.131.451.321.929.6 1.391.866.9424832.4182633 1.7506951 1.089408 2.335 1.939.623 1.2.04 2.751-.709 3.8-.5564731.7199493-1.1686931 1.3950297-1.831 2.019-.547.544-1.113 1.107-1.63 1.734-.7587586.9401816-1.3970385 1.9715075-1.9 3.07-.565 1.22-.836 1.2-.857 1.2-.1621341-.1223064-.2617407-.3101674-.272-.513-.0189732-.3729621.0109475-.7468034.089-1.112.031-.192.062-.384.084-.574.2285777-1.8991267-.283187-3.8133203-1.429-5.345-.306-.4-.651-.783-.984-1.149-.793-.869-1.477-1.619-1.465-2.457.13781058-.7801357.48875345-1.5069405 1.014-2.1l.121-.173c.87638497-1.0365258 1.26275957-2.4008655 1.06-3.743-.44133629-1.2114935-1.33587396-2.204269-2.495-2.769-.579-.359-1.159-.722-1.739-1.084 3.41107036-5.28709664 8.9663191-8.81531182 15.202-9.655zm-18.651 21.289c-.00007667-3.4508531.83648378-6.8502807 2.438-9.907.565.352 1.13.706 1.7 1.056.728.452 1.454.944 1.608 1.559.13.511-.111 1.181-.759 2.106l-.118.168c-.77465709.9060107-1.25527863 2.0262983-1.378 3.212-.024 1.639 1.044 2.81 1.987 3.844.316.346.614.673.864 1 .83655435 1.1173315 1.20980235 2.514325 1.042 3.9-.02.166-.047.332-.073.5-.11349996.549971-.14717919 1.1134247-.1 1.673.08134677 1.1222065.9082621 2.0488936 2.014 2.257.0892675.010691.1790946.0160339.269.016 1.551 0 2.338-1.7 2.644-2.36.4314406-.9451951.979356-1.8327443 1.631-2.642.453-.55.959-1.053 1.5-1.587.7366334-.6996832 1.4158214-1.4574577 2.031-2.266 1.1-1.534 1.9-3.887.865-5.883-.7445338-1.2028078-1.8259574-2.1604414-3.11-2.754-.442-.256-.859-.5-1.233-.764-1.1061417-.7975747-1.9493877-1.9068157-2.422-3.186-.2361759-.5686516-.3166002-1.1899551-.233-1.8.0623529-.4613237.3429911-.8644155.754-1.083.5032038-.1352065 1.0317627-.1458463 1.54-.031.832063.1665538 1.6929806.1162762 2.5-.146 1.0393288-.49848128 1.8615587-1.35839229 2.313-2.419 1.0079128-1.90416025 1.8629366-3.88539452 2.557-5.925.225-.007.445-.034.671-.034 3.7870375-.00106726 7.506443 1.0034966 10.778 2.911-.1666662.8937818-.1362931 1.81316711.089 2.694.2388964.87567068.5527213 1.72915392.938 2.551.3107308.6706151.5737182 1.3623354.787 2.07.6013302 2.4241181-.0707329 4.9876771-1.784 6.805-6.0116998.2461715-11.3742824 3.8516931-13.8708364 9.326029-2.496554 5.4743358-1.7029101 11.8873856 2.0528364 16.587971-11.4572101-.5418081-20.47333967-9.9790013-20.492-21.449zm19 11.5c0-7.7319865 6.2680135-14 14-14s14 6.2680135 14 14-6.2680135 14-14 14c-7.7285595-.0082673-13.9917327-6.2714405-14-14zm25.983 10.567 1.943 1.943-1.416 1.416-1.943-1.943c.5005542-.4425549.9734451-.9154458 1.416-1.416zm10.431 11.847c-.791167.755814-2.036833.755814-2.828 0l-6.364-6.364 2.829-2.828 6.363 6.364c.7807639.7809997.7807639 2.0470003 0 2.828z"/></g></g></svg>