<svg height="512" viewBox="0 0 60 37" width="512" xmlns="http://www.w3.org/2000/svg"><g id="Page-1" fill="none" fill-rule="evenodd"><g id="050---Track" fill="rgb(0,0,0)" fill-rule="nonzero"><path id="Shape" d="m2 31h5.5l-.768 1.85c-.38443929.9262732-.28060471 1.9833832.27671461 2.8171522.55731933.833769 1.49440232 1.3339077 2.49728539 1.3328478h3.312c1.3479526-.0027811 2.5295914-.9016764 2.892-2.2l1.051-3.8h26.478l1.051 3.8c.3624086 1.2983236 1.5440474 2.1972189 2.892 2.2h3.312c1.0022637.0002522 1.9384498-.5000256 2.4952397-1.3334028.5567899-.8333771.6606273-1.8897578.2767603-2.8155972l-.766-1.851h5.5c.7133841.000178 1.3728543-.3796426 1.7306917-.9967886.3578375-.617146.3598602-1.378172.0053083-1.9972114l-2.864-5c-.3567948-.6229568-1.0201025-1.0068967-1.738-1.006h-6.372l-1.246-3h3.6c.7130761-.0000262 1.3722015-.3797102 1.7299739-.9965379.3577724-.6168276.3600684-1.3774859.0060261-1.9964621l-1.716-3c-.3561842-.6227209-1.0186099-1.0069737-1.736-1.007h-4.789l-.83-2h2.188c.7133841.000178 1.3728543-.37964264 1.7306917-.99678863.3578375-.61714598.3598602-1.37817197.0053083-1.99721137l-1.145-2.006c-.3594753-.61851693-1.0206083-.99935394-1.736-1h-3.534l-1.148-2.767c-.3106605-.74813636-1.0419296-1.23499105-1.852-1.233h-1c-.6246261.00088612-1.2129704.29354837-1.5905035.79117002-.3775332.49762165-.5008971 1.14305293-.3334965 1.74482998l.405 1.464h-11.542l.405-1.463c.1677749-.601913.0445898-1.24764947-.3329887-1.74552712-.3775784-.49787766-.9661537-.7906734-1.5910113-.79147288h-1c-.8112801-.00050629-1.5429959.48769893-1.854 1.237l-1.146 2.763h-3.534c-.7169283.00173584-1.3787151.38501593-1.737 1.006l-1.144 2c-.3545519.6190394-.3525292 1.38006539.0053083 1.99721137.3578374.61714599 1.0173076.99696663 1.7306917.99678863h2.188l-.83 2h-4.789c-.7184848-.0001611-1.38219028.3839489-1.74 1.007l-1.716 3c-.35404227.6189762-.3517463 1.3796345.00602612 1.9964621.35777241.6168277 1.01689782.9965117 1.72997388.9965379h3.6l-1.245 3h-6.369c-.71718282-.0001789-1.37956015.3836642-1.736 1.006l-2.864 5c-.35437465.6187295-.35254338 1.3793306.00480651 1.9963465.3573499.6170159 1.01616664.9971185 1.72919349.9976535zm15.312-2 1.388-5h22.6l1.383 5zm5.258-19h14.861l.553 2h-15.968zm-1.107 4h17.074l.83 3h-18.734zm-1.383 5h19.84l.83 3h-21.5zm35.054 5 2.866 5h-6.333l-2.075-5zm-5.734-10 1.717 3h-4.431l-1.245-3zm-4.579-8 1.145 2h-3.016l-.83-2zm-6.521-4 13.118 31.617c.1279557.3086131.0933432.66074-.0922534.9385324-.1855967.2777924-.4976587.4445517-.8317466.4444676h-3.312c-.4495685.0001364-.8439652-.2997524-.964-.733l-8.928-32.267zm-1.972 4 .553 2h-13.758l.553-2zm-14.618-4 1-.005v.005l-8.928 32.267c-.1200348.4332476-.5144315.7331364-.964.733h-3.312c-.33435323.000223-.64669604-.1666699-.83234731-.444745s-.22004443-.6305356-.09165269-.939255zm-7.679 6 1.145-2h2.7l-.83 2zm-5.151 9 1.72-3h3.962l-1.246 3zm-4.014 7h5.542l-2.076 5h-6.332z"/></g></g></svg>